<mxfile host="app.diagrams.net" modified="2023-07-13T11:34:18.313Z" agent="Mozilla/5.0 (Windows NT 10.0; Win64; x64) AppleWebKit/537.36 (KHTML, like Gecko) Chrome/114.0.5735.199 Safari/537.36" etag="RsEV3l36q2b007Tb1N8e" version="21.6.2" type="github">
  <diagram name="Page-1" id="64c3da0e-402f-94eb-ee01-a36477274f13">
    <mxGraphModel dx="2390" dy="1273" grid="1" gridSize="10" guides="1" tooltips="1" connect="1" arrows="1" fold="1" page="1" pageScale="1" pageWidth="1169" pageHeight="826" background="none" math="0" shadow="0">
      <root>
        <mxCell id="0" />
        <mxCell id="1" parent="0" />
        <mxCell id="KeRA11IeZrb4UOe-3Uj5-273" style="edgeStyle=orthogonalEdgeStyle;rounded=0;orthogonalLoop=1;jettySize=auto;html=1;exitX=0.5;exitY=1;exitDx=0;exitDy=0;entryX=0;entryY=0.5;entryDx=0;entryDy=0;endArrow=none;endFill=0;" edge="1" parent="1" source="2" target="KeRA11IeZrb4UOe-3Uj5-272">
          <mxGeometry relative="1" as="geometry" />
        </mxCell>
        <mxCell id="2" value="SIRTAP SW" style="whiteSpace=wrap;rounded=1;shadow=1;fillColor=#10739E;strokeColor=none;fontColor=#FFFFFF;fontStyle=1;fontSize=24" parent="1" vertex="1">
          <mxGeometry x="140" y="60" width="180" height="40" as="geometry" />
        </mxCell>
        <mxCell id="KeRA11IeZrb4UOe-3Uj5-238" style="edgeStyle=orthogonalEdgeStyle;rounded=0;orthogonalLoop=1;jettySize=auto;html=1;exitX=0;exitY=0.5;exitDx=0;exitDy=0;endArrow=none;endFill=0;" edge="1" parent="1" source="3" target="2">
          <mxGeometry relative="1" as="geometry" />
        </mxCell>
        <mxCell id="3" value="SW/HW Integration" style="whiteSpace=wrap;rounded=1;fillColor=#d5e8d4;strokeColor=#82b366;shadow=1;fontStyle=1;fontSize=14" parent="1" vertex="1">
          <mxGeometry x="280" y="140" width="140" height="30" as="geometry" />
        </mxCell>
        <mxCell id="167" value="" style="edgeStyle=elbowEdgeStyle;elbow=horizontal;rounded=0;fontColor=#000000;endArrow=none;endFill=0;strokeWidth=8;strokeColor=#23445D;" parent="1" target="157" edge="1">
          <mxGeometry width="100" height="100" relative="1" as="geometry">
            <mxPoint x="1180" y="330.0000000000002" as="sourcePoint" />
            <mxPoint x="1169.9999999999995" y="430.0000000000001" as="targetPoint" />
            <Array as="points">
              <mxPoint x="1160" y="380.0000000000001" />
            </Array>
          </mxGeometry>
        </mxCell>
        <mxCell id="168" value="" style="edgeStyle=elbowEdgeStyle;elbow=horizontal;rounded=0;fontColor=#000000;endArrow=none;endFill=0;strokeWidth=8;strokeColor=#23445D;" parent="1" target="158" edge="1">
          <mxGeometry width="100" height="100" relative="1" as="geometry">
            <mxPoint x="1180" y="330.0000000000002" as="sourcePoint" />
            <mxPoint x="1169.9999999999998" y="510.0000000000001" as="targetPoint" />
            <Array as="points">
              <mxPoint x="1160" y="420.0000000000001" />
            </Array>
          </mxGeometry>
        </mxCell>
        <mxCell id="169" value="" style="edgeStyle=elbowEdgeStyle;elbow=horizontal;rounded=0;fontColor=#000000;endArrow=none;endFill=0;strokeWidth=8;strokeColor=#23445D;" parent="1" target="161" edge="1">
          <mxGeometry width="100" height="100" relative="1" as="geometry">
            <mxPoint x="1180" y="330.0000000000002" as="sourcePoint" />
            <mxPoint x="1170" y="750.0000000000001" as="targetPoint" />
            <Array as="points">
              <mxPoint x="1160" y="550.0000000000001" />
            </Array>
          </mxGeometry>
        </mxCell>
        <mxCell id="170" value="" style="edgeStyle=elbowEdgeStyle;elbow=horizontal;rounded=0;fontColor=#000000;endArrow=none;endFill=0;strokeWidth=8;strokeColor=#23445D;" parent="1" target="160" edge="1">
          <mxGeometry width="100" height="100" relative="1" as="geometry">
            <mxPoint x="1180" y="330.0000000000002" as="sourcePoint" />
            <mxPoint x="1170" y="670.0000000000001" as="targetPoint" />
            <Array as="points">
              <mxPoint x="1160" y="500.0000000000001" />
            </Array>
          </mxGeometry>
        </mxCell>
        <mxCell id="171" value="" style="edgeStyle=elbowEdgeStyle;elbow=horizontal;rounded=0;fontColor=#000000;endArrow=none;endFill=0;strokeWidth=8;strokeColor=#23445D;" parent="1" target="159" edge="1">
          <mxGeometry width="100" height="100" relative="1" as="geometry">
            <mxPoint x="1180" y="330.0000000000002" as="sourcePoint" />
            <mxPoint x="1169.9999999999998" y="590.0000000000001" as="targetPoint" />
            <Array as="points">
              <mxPoint x="1160" y="470.0000000000001" />
            </Array>
          </mxGeometry>
        </mxCell>
        <mxCell id="KeRA11IeZrb4UOe-3Uj5-239" style="edgeStyle=orthogonalEdgeStyle;rounded=0;orthogonalLoop=1;jettySize=auto;html=1;exitX=0;exitY=0.5;exitDx=0;exitDy=0;endArrow=none;endFill=0;entryX=0.5;entryY=1;entryDx=0;entryDy=0;" edge="1" parent="1" source="KeRA11IeZrb4UOe-3Uj5-234" target="2">
          <mxGeometry relative="1" as="geometry">
            <mxPoint x="230" y="200" as="targetPoint" />
          </mxGeometry>
        </mxCell>
        <mxCell id="KeRA11IeZrb4UOe-3Uj5-234" value="HW Definition" style="whiteSpace=wrap;rounded=1;fillColor=#d5e8d4;strokeColor=#82b366;shadow=1;fontStyle=1;fontSize=14" vertex="1" parent="1">
          <mxGeometry x="280" y="180" width="140" height="30" as="geometry" />
        </mxCell>
        <mxCell id="KeRA11IeZrb4UOe-3Uj5-240" style="edgeStyle=orthogonalEdgeStyle;rounded=0;orthogonalLoop=1;jettySize=auto;html=1;exitX=0;exitY=0.5;exitDx=0;exitDy=0;endArrow=none;endFill=0;entryX=0.5;entryY=1;entryDx=0;entryDy=0;" edge="1" parent="1" source="KeRA11IeZrb4UOe-3Uj5-235" target="2">
          <mxGeometry relative="1" as="geometry">
            <mxPoint x="220" y="150" as="targetPoint" />
          </mxGeometry>
        </mxCell>
        <mxCell id="KeRA11IeZrb4UOe-3Uj5-235" value="FRD Definition" style="whiteSpace=wrap;rounded=1;fillColor=#d5e8d4;strokeColor=#82b366;shadow=1;fontStyle=1;fontSize=14" vertex="1" parent="1">
          <mxGeometry x="280" y="220" width="140" height="30" as="geometry" />
        </mxCell>
        <mxCell id="KeRA11IeZrb4UOe-3Uj5-242" style="edgeStyle=orthogonalEdgeStyle;rounded=0;orthogonalLoop=1;jettySize=auto;html=1;exitX=0;exitY=0.5;exitDx=0;exitDy=0;entryX=0.5;entryY=1;entryDx=0;entryDy=0;endArrow=none;endFill=0;" edge="1" parent="1" source="KeRA11IeZrb4UOe-3Uj5-241" target="2">
          <mxGeometry relative="1" as="geometry" />
        </mxCell>
        <mxCell id="KeRA11IeZrb4UOe-3Uj5-241" value="SW" style="whiteSpace=wrap;rounded=1;fillColor=#d5e8d4;strokeColor=#82b366;shadow=1;fontStyle=1;fontSize=14" vertex="1" parent="1">
          <mxGeometry x="280" y="260" width="140" height="30" as="geometry" />
        </mxCell>
        <mxCell id="KeRA11IeZrb4UOe-3Uj5-256" value="" style="group" vertex="1" connectable="0" parent="1">
          <mxGeometry x="383" y="310" width="220" height="158" as="geometry" />
        </mxCell>
        <mxCell id="KeRA11IeZrb4UOe-3Uj5-263" style="edgeStyle=orthogonalEdgeStyle;rounded=0;orthogonalLoop=1;jettySize=auto;html=1;exitX=0.5;exitY=1;exitDx=0;exitDy=0;entryX=0;entryY=0.5;entryDx=0;entryDy=0;" edge="1" parent="KeRA11IeZrb4UOe-3Uj5-256" source="KeRA11IeZrb4UOe-3Uj5-243" target="KeRA11IeZrb4UOe-3Uj5-244">
          <mxGeometry relative="1" as="geometry" />
        </mxCell>
        <mxCell id="KeRA11IeZrb4UOe-3Uj5-264" style="edgeStyle=orthogonalEdgeStyle;rounded=0;orthogonalLoop=1;jettySize=auto;html=1;exitX=0.5;exitY=1;exitDx=0;exitDy=0;entryX=0;entryY=0.5;entryDx=0;entryDy=0;" edge="1" parent="KeRA11IeZrb4UOe-3Uj5-256" source="KeRA11IeZrb4UOe-3Uj5-243" target="KeRA11IeZrb4UOe-3Uj5-245">
          <mxGeometry relative="1" as="geometry" />
        </mxCell>
        <mxCell id="KeRA11IeZrb4UOe-3Uj5-265" style="edgeStyle=orthogonalEdgeStyle;rounded=0;orthogonalLoop=1;jettySize=auto;html=1;exitX=0.5;exitY=1;exitDx=0;exitDy=0;entryX=0;entryY=0.5;entryDx=0;entryDy=0;" edge="1" parent="KeRA11IeZrb4UOe-3Uj5-256" source="KeRA11IeZrb4UOe-3Uj5-243" target="KeRA11IeZrb4UOe-3Uj5-246">
          <mxGeometry relative="1" as="geometry" />
        </mxCell>
        <mxCell id="KeRA11IeZrb4UOe-3Uj5-243" value="Reference Data Base" style="whiteSpace=wrap;rounded=1;fillColor=#b1ddf0;strokeColor=#10739e;shadow=1;fontStyle=1;fontSize=14;" vertex="1" parent="KeRA11IeZrb4UOe-3Uj5-256">
          <mxGeometry width="150" height="32" as="geometry" />
        </mxCell>
        <mxCell id="KeRA11IeZrb4UOe-3Uj5-244" value="Requirements" style="whiteSpace=wrap;rounded=1;fillColor=#ffe6cc;strokeColor=#d79b00;shadow=1;fontStyle=1;fontSize=14;" vertex="1" parent="KeRA11IeZrb4UOe-3Uj5-256">
          <mxGeometry x="112" y="50" width="150" height="32" as="geometry" />
        </mxCell>
        <mxCell id="KeRA11IeZrb4UOe-3Uj5-245" value="SW Development" style="whiteSpace=wrap;rounded=1;fillColor=#ffe6cc;strokeColor=#d79b00;shadow=1;fontStyle=1;fontSize=14;" vertex="1" parent="KeRA11IeZrb4UOe-3Uj5-256">
          <mxGeometry x="112" y="88" width="150" height="32" as="geometry" />
        </mxCell>
        <mxCell id="KeRA11IeZrb4UOe-3Uj5-246" value="SW Testing" style="whiteSpace=wrap;rounded=1;fillColor=#ffe6cc;strokeColor=#d79b00;shadow=1;fontStyle=1;fontSize=14;" vertex="1" parent="KeRA11IeZrb4UOe-3Uj5-256">
          <mxGeometry x="112" y="126" width="150" height="32" as="geometry" />
        </mxCell>
        <mxCell id="KeRA11IeZrb4UOe-3Uj5-257" value="" style="group" vertex="1" connectable="0" parent="1">
          <mxGeometry x="383" y="505" width="220" height="158" as="geometry" />
        </mxCell>
        <mxCell id="KeRA11IeZrb4UOe-3Uj5-260" style="edgeStyle=orthogonalEdgeStyle;rounded=0;orthogonalLoop=1;jettySize=auto;html=1;exitX=0;exitY=0.5;exitDx=0;exitDy=0;endArrow=none;endFill=0;" edge="1" parent="KeRA11IeZrb4UOe-3Uj5-257" source="KeRA11IeZrb4UOe-3Uj5-247">
          <mxGeometry relative="1" as="geometry">
            <mxPoint x="-33" y="-215" as="targetPoint" />
          </mxGeometry>
        </mxCell>
        <mxCell id="KeRA11IeZrb4UOe-3Uj5-266" style="edgeStyle=orthogonalEdgeStyle;rounded=0;orthogonalLoop=1;jettySize=auto;html=1;exitX=0.5;exitY=1;exitDx=0;exitDy=0;entryX=0;entryY=0.5;entryDx=0;entryDy=0;" edge="1" parent="KeRA11IeZrb4UOe-3Uj5-257" source="KeRA11IeZrb4UOe-3Uj5-247" target="KeRA11IeZrb4UOe-3Uj5-248">
          <mxGeometry relative="1" as="geometry" />
        </mxCell>
        <mxCell id="KeRA11IeZrb4UOe-3Uj5-267" style="edgeStyle=orthogonalEdgeStyle;rounded=0;orthogonalLoop=1;jettySize=auto;html=1;exitX=0.5;exitY=1;exitDx=0;exitDy=0;entryX=0;entryY=0.5;entryDx=0;entryDy=0;" edge="1" parent="KeRA11IeZrb4UOe-3Uj5-257" source="KeRA11IeZrb4UOe-3Uj5-247" target="KeRA11IeZrb4UOe-3Uj5-249">
          <mxGeometry relative="1" as="geometry" />
        </mxCell>
        <mxCell id="KeRA11IeZrb4UOe-3Uj5-268" style="edgeStyle=orthogonalEdgeStyle;rounded=0;orthogonalLoop=1;jettySize=auto;html=1;exitX=0.5;exitY=1;exitDx=0;exitDy=0;entryX=0;entryY=0.5;entryDx=0;entryDy=0;" edge="1" parent="KeRA11IeZrb4UOe-3Uj5-257" source="KeRA11IeZrb4UOe-3Uj5-247" target="KeRA11IeZrb4UOe-3Uj5-250">
          <mxGeometry relative="1" as="geometry" />
        </mxCell>
        <mxCell id="KeRA11IeZrb4UOe-3Uj5-247" value="Mission Planning" style="whiteSpace=wrap;rounded=1;fillColor=#b1ddf0;strokeColor=#10739e;shadow=1;fontStyle=1;fontSize=14;" vertex="1" parent="KeRA11IeZrb4UOe-3Uj5-257">
          <mxGeometry width="150" height="32" as="geometry" />
        </mxCell>
        <mxCell id="KeRA11IeZrb4UOe-3Uj5-248" value="Requirements" style="whiteSpace=wrap;rounded=1;fillColor=#ffe6cc;strokeColor=#d79b00;shadow=1;fontStyle=1;fontSize=14;" vertex="1" parent="KeRA11IeZrb4UOe-3Uj5-257">
          <mxGeometry x="112" y="50" width="150" height="32" as="geometry" />
        </mxCell>
        <mxCell id="KeRA11IeZrb4UOe-3Uj5-249" value="SW Development" style="whiteSpace=wrap;rounded=1;fillColor=#ffe6cc;strokeColor=#d79b00;shadow=1;fontStyle=1;fontSize=14;" vertex="1" parent="KeRA11IeZrb4UOe-3Uj5-257">
          <mxGeometry x="112" y="88" width="150" height="32" as="geometry" />
        </mxCell>
        <mxCell id="KeRA11IeZrb4UOe-3Uj5-250" value="SW Testing" style="whiteSpace=wrap;rounded=1;fillColor=#ffe6cc;strokeColor=#d79b00;shadow=1;fontStyle=1;fontSize=14;" vertex="1" parent="KeRA11IeZrb4UOe-3Uj5-257">
          <mxGeometry x="112" y="126" width="150" height="32" as="geometry" />
        </mxCell>
        <mxCell id="KeRA11IeZrb4UOe-3Uj5-258" value="" style="group" vertex="1" connectable="0" parent="1">
          <mxGeometry x="383" y="700" width="220" height="158" as="geometry" />
        </mxCell>
        <mxCell id="KeRA11IeZrb4UOe-3Uj5-261" style="edgeStyle=orthogonalEdgeStyle;rounded=0;orthogonalLoop=1;jettySize=auto;html=1;exitX=0;exitY=0.5;exitDx=0;exitDy=0;endArrow=none;endFill=0;" edge="1" parent="KeRA11IeZrb4UOe-3Uj5-258" source="KeRA11IeZrb4UOe-3Uj5-251">
          <mxGeometry relative="1" as="geometry">
            <mxPoint x="-33" y="-410" as="targetPoint" />
          </mxGeometry>
        </mxCell>
        <mxCell id="KeRA11IeZrb4UOe-3Uj5-269" style="edgeStyle=orthogonalEdgeStyle;rounded=0;orthogonalLoop=1;jettySize=auto;html=1;exitX=0.5;exitY=1;exitDx=0;exitDy=0;entryX=0;entryY=0.5;entryDx=0;entryDy=0;" edge="1" parent="KeRA11IeZrb4UOe-3Uj5-258" source="KeRA11IeZrb4UOe-3Uj5-251" target="KeRA11IeZrb4UOe-3Uj5-252">
          <mxGeometry relative="1" as="geometry" />
        </mxCell>
        <mxCell id="KeRA11IeZrb4UOe-3Uj5-270" style="edgeStyle=orthogonalEdgeStyle;rounded=0;orthogonalLoop=1;jettySize=auto;html=1;exitX=0.5;exitY=1;exitDx=0;exitDy=0;entryX=0;entryY=0.5;entryDx=0;entryDy=0;" edge="1" parent="KeRA11IeZrb4UOe-3Uj5-258" source="KeRA11IeZrb4UOe-3Uj5-251" target="KeRA11IeZrb4UOe-3Uj5-253">
          <mxGeometry relative="1" as="geometry" />
        </mxCell>
        <mxCell id="KeRA11IeZrb4UOe-3Uj5-271" style="edgeStyle=orthogonalEdgeStyle;rounded=0;orthogonalLoop=1;jettySize=auto;html=1;exitX=0.5;exitY=1;exitDx=0;exitDy=0;entryX=0;entryY=0.5;entryDx=0;entryDy=0;" edge="1" parent="KeRA11IeZrb4UOe-3Uj5-258" source="KeRA11IeZrb4UOe-3Uj5-251" target="KeRA11IeZrb4UOe-3Uj5-254">
          <mxGeometry relative="1" as="geometry" />
        </mxCell>
        <mxCell id="KeRA11IeZrb4UOe-3Uj5-251" value="Mission Debriefing" style="whiteSpace=wrap;rounded=1;fillColor=#b1ddf0;strokeColor=#10739e;shadow=1;fontStyle=1;fontSize=14;" vertex="1" parent="KeRA11IeZrb4UOe-3Uj5-258">
          <mxGeometry width="150" height="32" as="geometry" />
        </mxCell>
        <mxCell id="KeRA11IeZrb4UOe-3Uj5-252" value="Requirements" style="whiteSpace=wrap;rounded=1;fillColor=#ffe6cc;strokeColor=#d79b00;shadow=1;fontStyle=1;fontSize=14;" vertex="1" parent="KeRA11IeZrb4UOe-3Uj5-258">
          <mxGeometry x="112" y="50" width="150" height="32" as="geometry" />
        </mxCell>
        <mxCell id="KeRA11IeZrb4UOe-3Uj5-253" value="SW Development" style="whiteSpace=wrap;rounded=1;fillColor=#ffe6cc;strokeColor=#d79b00;shadow=1;fontStyle=1;fontSize=14;" vertex="1" parent="KeRA11IeZrb4UOe-3Uj5-258">
          <mxGeometry x="112" y="88" width="150" height="32" as="geometry" />
        </mxCell>
        <mxCell id="KeRA11IeZrb4UOe-3Uj5-254" value="SW Testing" style="whiteSpace=wrap;rounded=1;fillColor=#ffe6cc;strokeColor=#d79b00;shadow=1;fontStyle=1;fontSize=14;" vertex="1" parent="KeRA11IeZrb4UOe-3Uj5-258">
          <mxGeometry x="112" y="126" width="150" height="32" as="geometry" />
        </mxCell>
        <mxCell id="KeRA11IeZrb4UOe-3Uj5-259" style="edgeStyle=orthogonalEdgeStyle;rounded=0;orthogonalLoop=1;jettySize=auto;html=1;exitX=0;exitY=0.5;exitDx=0;exitDy=0;entryX=0.5;entryY=1;entryDx=0;entryDy=0;endArrow=none;endFill=0;" edge="1" parent="1" source="KeRA11IeZrb4UOe-3Uj5-243" target="KeRA11IeZrb4UOe-3Uj5-241">
          <mxGeometry relative="1" as="geometry" />
        </mxCell>
        <mxCell id="KeRA11IeZrb4UOe-3Uj5-272" value="QTP" style="whiteSpace=wrap;rounded=1;fillColor=#d5e8d4;strokeColor=#82b366;shadow=1;fontStyle=1;fontSize=14" vertex="1" parent="1">
          <mxGeometry x="280" y="870" width="140" height="30" as="geometry" />
        </mxCell>
      </root>
    </mxGraphModel>
  </diagram>
</mxfile>
